<?xml version="1.0" encoding="UTF-8"?>
<svg id="Layer_2" data-name="Layer 2" xmlns="http://www.w3.org/2000/svg" viewBox="0 0 271.66 264.08">
  <defs>
    <style>
      .cls-1 {
        stroke-width: 1.86px;
      }

      .cls-1, .cls-2, .cls-3 {
        stroke: #f0f;
        stroke-miterlimit: 10;
      }

      .cls-2 {
        stroke-width: .93px;
      }

      .cls-3 {
        stroke-width: 2.94px;
      }
    </style>
  </defs>
  <g id="Layer_1-2" data-name="Layer 1">
    <path class="cls-2" d="m87.96,152.89l-14.95-49.69.52,53.38c.03,2.97-.71,5.21-2.21,6.71-1.5,1.5-3.51,2.26-6.02,2.28s-4.42-.7-5.97-2.16c-1.55-1.46-2.34-3.69-2.37-6.7l-.59-61.62c-.03-3.4.96-5.7,2.97-6.9,2.01-1.2,4.74-1.81,8.18-1.84h5.44s5.91.8,7.46,1.32,2.71,1.47,3.46,2.84,1.62,3.62,2.6,6.73l13.6,42.56,12.76-42.75c.92-3.12,1.74-5.38,2.47-6.76s1.86-2.35,3.41-2.89,4.02-.83,7.45-.97h5.69c3.51.05,6.29.63,8.37,1.8,2.07,1.17,3.13,3.46,2.8,6.86l-.07,61.62c1.06,2.98.31,5.21-1.22,6.71-1.53,1.5-3.6,2.26-6.2,2.28-2.43.02-4.44-.71-6.02-2.19-1.58-1.48-2.56-6.68-2.56-6.68l-.53-53.99-13.97,49.9c-.91,3.24-1.66,5.62-2.24,7.13-.58,1.52-1.66,2.9-3.25,4.16-1.59,1.26-3.8,1.89-6.63,1.91-2.13.02-3.94-.37-5.43-1.16s-2.64-1.8-3.48-3.04c-.83-1.24-1.49-2.61-1.98-4.12-.49-1.51-.98-3.08-1.49-4.71Z"/>
    <path class="cls-1" d="m149.61,95.45l35.86,45.34-.43-45.88c-.03-2.91.68-5.1,2.14-6.57,1.46-1.47,3.43-2.21,5.93-2.23s4.62.7,6.12,2.14c1.5,1.45,2.27,3.62,2.3,6.54l.59,60.23c.07,6.71-3.17,10.09-9.71,10.14-1.64.01-3.11-.18-4.42-.57-1.31-.39-2.54-1.02-3.7-1.88-1.15-.86-2.23-1.87-3.22-3.03-.99-1.16-1.98-2.34-2.98-3.55l-34.59-44.3.44,44.7c.03,3-.77,5.27-2.39,6.82-1.62,1.55-3.71,2.33-6.27,2.35s-4.77-.74-6.38-2.28c-1.61-1.54-2.43-3.79-2.46-6.75l-.58-59.08c-.02-2.53.29-4.52.93-5.97.77-1.59,2.06-2.89,3.87-3.91,1.81-1.02,3.77-1.53,5.88-1.55,1.65-.01,3.07.21,4.26.66,1.18.45,2.22,1.06,3.12,1.82.9.77,1.82,1.76,2.76,2.99.94,1.23,1.92,2.5,2.92,3.83Z"/>
    <path class="cls-3" d="m270.16,134.9c-1.81,71.63-62.77,128.72-136.62,127.7C59.34,261.58.22,202.29,1.49,130.19,2.76,58.08,63.94.46,138.14,1.48c72.91,1.01,131.26,58.27,132.06,128.67-.96-58.48-54.03-106.06-120.22-106.97-67.45-.93-122.99,46.95-124.05,106.95-1.06,60,52.77,109.39,120.22,110.32,66.93.92,122.12-46.2,124.01-105.54Z"/>
    <path d="m57.41,135.72c1.53,58.96,50.08,105.46,108.82,104.02,59.01-1.46,105.96-50.76,104.86-110.12-1.1-59.36-49.83-106.3-108.84-104.85s-104.33,49.06-104.87,107.03c.69-48.16,42.84-87.77,95.49-89.07,53.65-1.32,97.88,37.64,98.8,87.04.92,49.4-41.83,90.5-95.48,91.83-53.23,1.31-97.18-37.03-98.77-85.88Z"/>
  </g>
</svg>